<svg xmlns="http://www.w3.org/2000/svg" xmlns:xlink="http://www.w3.org/1999/xlink" version="1.1" x="0px" y="0px" viewBox="-247 370.9 100 125" style="enable-background:new -247 370.9 100 100;" xml:space="preserve"><path d="M-193.3,465.1c-1.3,0-2.7-0.4-3.9-1.2c-1.6-1-2.6-2.6-3-4.4c-0.4-1.8,0-3.7,1-5.3l7.3-10.9l-6.4-10.2l-9.3-14.6l7.1-10.7  l-6.5-1.5l-6.5,9.8c-2.1,3.2-6.5,4.1-9.7,2c-1.6-1-2.6-2.6-3-4.4c-0.4-1.8,0-3.7,1-5.3l9.2-13.9c1.6-2.3,4.5-3.5,7.3-2.9l16,3.6  c0.9,0.2,7.1,3.5,18.5,9.8l1.9,1l-13.6,20.5l8.3,13.1c1.5,2.4,1.4,5.5-0.3,7.9c-0.2,0.3-0.3,0.6-0.5,0.9l-9.1,13.6  C-188.8,464-191,465.1-193.3,465.1z"/><path d="M-175.7,399.7c-2.3,0-4.6-0.6-6.6-2c-2.7-1.8-4.5-4.5-5.1-7.6s0-6.3,1.8-9c3.7-5.5,11.1-7,16.6-3.4c2.7,1.8,4.5,4.5,5.1,7.6  c0.6,3.1,0,6.3-1.8,9C-168,397.8-171.8,399.7-175.7,399.7z"/><path d="M-163.6,422.5c-0.5,0-1-0.1-1.5-0.2l-13.9-3.1l8.3-12.3l4.4,1l6.4-9.6c1-1.5,2.6-2.6,4.4-2.9c1.8-0.4,3.6,0,5.2,1l0,0  c1.5,1,2.6,2.6,2.9,4.4c0.4,1.8,0,3.6-1,5.2l-8.9,13.4c-0.9,1.3-2.3,2.3-3.8,2.8c-0.1,0-0.1,0-0.2,0.1h-0.1h-0.1  C-162.3,422.4-163,422.5-163.6,422.5z"/><path d="M-213.9,446.9c-0.9,0-1.9-0.2-2.8-0.6l-14.3-3.2c-3.7-0.8-6-4.5-5.2-8.3c0.4-1.8,1.5-3.3,3.1-4.3c1.6-1,3.4-1.3,5.2-0.9  l11,2.5l6.2-9.3c0.1-0.2,0.2-0.3,0.4-0.5l1.8-2.2l1.5,2.3l6.4,10.1l-7.6,11.4C-209.5,445.8-211.7,446.9-213.9,446.9z"/><rect x="-245.8" y="378.6" width="55.7" height="4"/><rect x="-245.8" y="388.6" width="27.1" height="4"/><rect x="-245.8" y="398.6" width="19.5" height="4"/><rect x="-245.8" y="408.6" width="15.7" height="4"/><rect x="-245.8" y="418.6" width="9.8" height="4"/><rect x="-245.8" y="428.6" width="5.8" height="4"/><rect x="-245.8" y="438.6" width="5.8" height="4"/><rect x="-245.8" y="448.6" width="23.8" height="4"/><rect x="-245.8" y="458.6" width="38.8" height="4"/><text x="-247" y="485.9" fill="#000000" font-size="5px" font-weight="bold" font-family="'Helvetica Neue', Helvetica, Arial-Unicode, Arial, Sans-serif">Created by Icons Producer</text><text x="-247" y="490.9" fill="#000000" font-size="5px" font-weight="bold" font-family="'Helvetica Neue', Helvetica, Arial-Unicode, Arial, Sans-serif">from the Noun Project</text></svg>