<svg xmlns="http://www.w3.org/2000/svg" xmlns:xlink="http://www.w3.org/1999/xlink" version="1.1" x="0px" y="0px" viewBox="0 0 91 113.75" enable-background="new 0 0 91 91" xml:space="preserve"><g><path d="M59.744,42.155c-1.07-1.613-2.32-3.105-3.719-4.438c-0.84-0.799-2.168-0.766-2.967,0.074   c-0.801,0.84-0.768,2.17,0.072,2.971c1.168,1.111,2.215,2.361,3.109,3.711c2.574,3.896,3.779,8.425,3.482,13.099   C58.984,69.318,48.83,78.279,37.077,77.533c-11.746-0.74-20.701-10.9-19.959-22.646c0.357-5.691,2.91-10.899,7.186-14.671   c4.279-3.768,9.766-5.646,15.459-5.287c1.141,0.061,2.154-0.807,2.229-1.965s-0.807-2.154-1.965-2.229   c-6.811-0.428-13.381,1.818-18.498,6.33c-5.119,4.512-8.174,10.745-8.604,17.558c-0.887,14.057,9.83,26.217,23.891,27.104   c0.543,0.033,1.082,0.049,1.621,0.049c13.361,0,24.63-10.426,25.482-23.939C64.268,52.244,62.826,46.822,59.744,42.155z"/><path d="M53.541,67.473c0.338,0.209,0.717,0.307,1.086,0.307c0.709,0,1.402-0.359,1.797-1.01c0.012-0.018,0.061-0.105,0.07-0.123   c0.568-0.998,0.211-2.232-0.779-2.814c-0.992-0.582-2.285-0.225-2.881,0.756C52.232,65.582,52.547,66.871,53.541,67.473z"/><path d="M56.465,45.758c-0.586-0.994-1.844-1.294-2.842-0.716c-0.996,0.578-1.322,1.888-0.752,2.89   c0.387,0.68,1.098,1.061,1.828,1.061c0.352,0,0.707-0.088,1.035-0.273c1.008-0.574,1.361-1.855,0.787-2.865   C56.516,45.846,56.471,45.766,56.465,45.758z"/><path d="M55.08,56.311c0,1.16,0.941,2.061,2.1,2.061c1.16,0,2.102-0.982,2.102-2.141v-0.033c0-1.16-0.941-2.045-2.102-2.045   C56.021,54.152,55.08,55.15,55.08,56.311z"/><path d="M36.284,74.986c0,1.16,0.979,2.1,2.139,2.1h0.004c1.16,0,2.061-0.939,2.061-2.1s-0.98-2.1-2.141-2.1   S36.284,73.826,36.284,74.986z"/><path d="M21.76,56.162c0-1.16-0.939-2.066-2.1-2.066s-2.102,0.975-2.102,2.135v0.012c0,1.16,0.941,2.061,2.102,2.061   S21.76,57.322,21.76,56.162z"/><path d="M23.293,44.997c-0.99-0.6-2.281-0.285-2.885,0.705c-0.01,0.018-0.061,0.105-0.07,0.123   c-0.568,0.998-0.209,2.232,0.779,2.812c0.326,0.191,0.684,0.281,1.039,0.281c0.725,0,1.441-0.377,1.842-1.035   C24.602,46.891,24.286,45.6,23.293,44.997z"/><path d="M38.477,39.569c1.162,0,2.072-0.939,2.072-2.1s-0.967-2.1-2.127-2.1h-0.025c-1.16,0-2.059,0.939-2.059,2.1   S37.319,39.569,38.477,39.569z"/><path d="M20.368,66.686c0.385,0.654,1.063,1.008,1.766,1.008c0.363,0,0.734-0.096,1.076-0.293c0.998-0.578,1.322-1.887,0.752-2.891   c-0.574-1.008-1.857-1.359-2.863-0.785c-1.008,0.572-1.361,1.855-0.787,2.861C20.317,66.596,20.362,66.676,20.368,66.686z"/><path d="M40.52,44.876c0-1.16-0.939-2.1-2.1-2.1s-2.1,0.939-2.1,2.1v11.438c0,1.16,0.939,2.1,2.1,2.1h7.52   c1.16,0,2.099-0.939,2.099-2.1s-0.939-2.1-2.099-2.1h-5.42V44.876z"/><path d="M52.83,5.778c0.02-0.879-0.512-1.678-1.33-2.002c-0.816-0.324-1.752-0.102-2.338,0.555   c-3.529,3.955-9.255,5.633-15.318,7.408c-5.553,1.625-11.295,3.309-15.549,6.947c-4.697,4.02-10.906,10.705-11.088,22.418   c-2.225,4.574-3.477,9.706-3.477,15.126c0,19.125,15.563,34.686,34.689,34.686c11.546,0,21.787-5.676,28.095-14.379   c9.178-6.117,20.781-23.285,20.75-33.579c0-0.682-0.332-1.318-0.889-1.711c-0.555-0.393-1.266-0.49-1.908-0.266   c-1.389,0.49-2.943,0.99-4.32,1.396c2.871-5.152,4.033-10.795,4.01-18.742c0-0.76-0.412-1.457-1.074-1.828   c-0.662-0.369-1.471-0.354-2.119,0.041c-0.703,0.43-1.492,0.98-2.338,1.57c-1.91,1.334-4.311,3.012-6.271,3.467   c2.307-3.551,4.854-7.549,5.609-11.533c0.926-4.904-1.234-10.131-6.08-14.717C71.211,0.001,70.203-0.12,69.4,0.337   s-1.213,1.387-1.008,2.287c1.164,5.158-5.348,7.402-13.98,9.801c-0.729,0.201-1.441,0.398-2.131,0.596   c0.438-2.281,0.488-4.58,0.541-6.963L52.83,5.778z M38.42,86.715c-16.811,0-30.488-13.676-30.488-30.484   c0-16.812,13.678-30.489,30.488-30.489c16.812,0,30.49,13.678,30.49,30.489C68.91,73.039,55.232,86.715,38.42,86.715z    M55.535,16.47c5.867-1.629,14.051-3.9,16.496-9.205c1.611,2.479,2.244,4.986,1.805,7.307c-0.619,3.279-3.049,7.018-5.191,10.316   c-0.533,0.824-1.051,1.621-1.521,2.381c-0.594,0.957-0.324,2.215,0.609,2.846c3.947,2.67,8.506,0.033,12.119-2.434   c-0.42,6.754-2.068,11.352-5.588,16.033c-0.104,0.141-0.191,0.293-0.26,0.453c-0.361,0.869-0.197,1.82,0.434,2.485   c0.707,0.75,1.439,1.523,8.281-0.65c-1.281,6.035-5.93,13.934-11.004,19.943c0.902-3.084,1.395-6.344,1.395-9.715   c0-19.128-15.561-34.688-34.689-34.688c-10.061,0-19.133,4.309-25.475,11.174c1.865-4.932,5.113-8.299,8.08-10.838   c3.568-3.053,8.635-4.537,13.998-6.109c4.672-1.367,9.459-2.77,13.39-5.338c-0.18,1.758-0.527,3.412-1.262,5.016   c-0.363,0.791-0.199,1.723,0.408,2.344s1.537,0.801,2.334,0.459C51.264,17.655,53.338,17.079,55.535,16.47z"/><circle cx="28.741" cy="40.11" r="2.15"/><circle cx="48.412" cy="40.11" r="2.15"/><circle cx="28.741" cy="72.029" r="2.15"/><circle cx="48.412" cy="72.029" r="2.15"/></g><text x="0" y="106" fill="#000000" font-size="5px" font-weight="bold" font-family="'Helvetica Neue', Helvetica, Arial-Unicode, Arial, Sans-serif">Created by BomSymbols</text><text x="0" y="111" fill="#000000" font-size="5px" font-weight="bold" font-family="'Helvetica Neue', Helvetica, Arial-Unicode, Arial, Sans-serif">from the Noun Project</text></svg>