<svg xmlns="http://www.w3.org/2000/svg" xmlns:xlink="http://www.w3.org/1999/xlink" xml:space="preserve" version="1.1" style="shape-rendering:geometricPrecision;text-rendering:geometricPrecision;image-rendering:optimizeQuality;" viewBox="0 0 369 461.25" x="0px" y="0px" fill-rule="evenodd" clip-rule="evenodd"><defs><style type="text/css">
   
    .fil0 {fill:black}
   
  </style></defs><g><path class="fil0" d="M184 0c102,0 185,83 185,184 0,102 -83,185 -185,185 -101,0 -184,-83 -184,-185 0,-101 83,-184 184,-184zm8 71c17,0 30,14 30,30 -1,17 -14,30 -30,30 -17,0 -30,-14 -30,-30 0,-17 14,-30 30,-30zm43 202c-9,33 -97,36 -91,-9 4,-30 10,-59 15,-88 3,-19 -9,-13 -20,-17 -7,-3 -7,-12 2,-14 11,-3 50,-1 63,-1 7,0 11,4 12,11 0,6 -1,11 -2,17 -5,28 -12,58 -16,86 0,6 1,17 10,16 9,0 13,-4 20,-7 4,-2 8,1 7,6z"/></g><text x="0" y="384" fill="#000000" font-size="5px" font-weight="bold" font-family="'Helvetica Neue', Helvetica, Arial-Unicode, Arial, Sans-serif">Created by SELicon</text><text x="0" y="389" fill="#000000" font-size="5px" font-weight="bold" font-family="'Helvetica Neue', Helvetica, Arial-Unicode, Arial, Sans-serif">from the Noun Project</text></svg>