<svg xmlns="http://www.w3.org/2000/svg" xmlns:xlink="http://www.w3.org/1999/xlink" version="1.1" x="0px" y="0px" viewBox="0 0 100 125" enable-background="new 0 0 100 100" xml:space="preserve"><path d="M87.335,12.567C82.445,7.679,76.441,4.992,70.43,5c-5.734,0.008-11.179,2.408-15.666,6.952l-16.771,16.87  c-4.69,4.713-7.067,10.372-6.873,16.382c0.203,5.785,2.894,11.547,7.574,16.226c2.627,2.625,6.883,2.625,9.508,0  c2.627-2.628,2.627-6.887,0-9.51c-2.265-2.266-3.559-4.816-3.641-7.169c-0.072-2.227,0.926-4.395,2.967-6.447L64.3,21.435  c0.011-0.01,0.021-0.02,0.03-0.031c1.957-1.957,4.018-2.951,6.118-2.955c2.415-0.003,5.034,1.285,7.38,3.632  c2.664,2.659,6.293,7.965,0.678,13.607l-8.242,8.269c-0.328,0.33-0.43,0.935-0.24,1.359c1.343,3.021,2.104,6.192,2.209,9.381  c0.045,1.318-0.019,2.619-0.186,3.9c-0.24,1.844,0.393,2.226,1.704,0.91l14.283-14.33C97.411,35.755,97.123,22.343,87.335,12.567z"/><path d="M61.29,38.564c-2.628-2.62-6.879-2.615-9.502,0.007c-2.629,2.638-2.623,6.895,0.007,9.518  c2.268,2.259,3.557,4.804,3.637,7.175c0.076,2.215-0.92,4.381-2.963,6.435L35.701,78.561c-0.01,0.013-0.02,0.021-0.03,0.031  c-1.96,1.96-4.021,2.955-6.124,2.96c-2.417,0.003-5.04-1.284-7.379-3.622c-2.663-2.664-6.29-7.979-0.683-13.617l8.25-8.271  c0.328-0.328,0.429-0.935,0.24-1.356c-1.341-3.017-2.103-6.181-2.214-9.362c-0.043-1.323,0.023-2.63,0.192-3.915  c0.243-1.841-0.392-2.227-1.703-0.913L11.958,54.82c-9.365,9.414-9.079,22.826,0.7,32.619c4.894,4.887,10.899,7.569,16.914,7.561  c5.71-0.01,11.106-2.396,15.61-6.898c0.019-0.02,0.038-0.039,0.057-0.058l16.77-16.866c4.698-4.728,7.071-10.393,6.863-16.369  C68.682,49.016,65.986,43.247,61.29,38.564z"/><text x="0" y="115" fill="#000000" font-size="5px" font-weight="bold" font-family="'Helvetica Neue', Helvetica, Arial-Unicode, Arial, Sans-serif">Created by David</text><text x="0" y="120" fill="#000000" font-size="5px" font-weight="bold" font-family="'Helvetica Neue', Helvetica, Arial-Unicode, Arial, Sans-serif">from the Noun Project</text></svg>